<svg width="20" height="20" viewBox="0 0 20 20" fill="none" xmlns="http://www.w3.org/2000/svg">
<path d="M10.0031 0C5.82702 0 4.60568 0.00430806 4.36828 0.024002C3.51128 0.0952388 2.97801 0.230173 2.39703 0.519429C1.9493 0.741755 1.5962 0.999469 1.24771 1.36073C0.613037 2.01956 0.228389 2.83009 0.0891465 3.79355C0.0214484 4.26128 0.00175447 4.35668 -0.00224587 6.7458C-0.00378446 7.54218 -0.00224587 8.59027 -0.00224587 9.99608C-0.00224587 14.1687 0.00236991 15.3888 0.0223716 15.6258C0.0916082 16.4597 0.222388 16.9844 0.499335 17.5583C1.02861 18.6568 2.03947 19.4815 3.23033 19.7892C3.64268 19.8954 4.0981 19.9538 4.68277 19.9815C4.93048 19.9923 7.45531 20 9.98167 20C12.508 20 15.0344 19.9969 15.276 19.9846C15.9529 19.9528 16.3461 19.9 16.7807 19.7877C17.3712 19.6362 17.9215 19.3577 18.3932 18.9716C18.8649 18.5855 19.2466 18.101 19.5117 17.5521C19.7833 16.9921 19.921 16.4474 19.9833 15.657C19.9968 15.4847 20.0025 12.7372 20.0025 9.99346C20.0025 7.24923 19.9964 4.50684 19.9828 4.33452C19.9197 3.53138 19.782 2.99133 19.5017 2.42051C19.2717 1.95324 19.0163 1.60429 18.6455 1.24749C17.9839 0.615437 17.1746 0.230789 16.21 0.0917001C15.7428 0.0241559 15.6497 0.0041542 13.2587 0H10.0031Z" fill="url(#paint0_radial_1215_8516)"/>
<path d="M10.0031 0C5.82702 0 4.60568 0.00430806 4.36828 0.024002C3.51128 0.0952388 2.97801 0.230173 2.39703 0.519429C1.9493 0.741755 1.5962 0.999469 1.24771 1.36073C0.613037 2.01956 0.228389 2.83009 0.0891465 3.79355C0.0214484 4.26128 0.00175447 4.35668 -0.00224587 6.7458C-0.00378446 7.54218 -0.00224587 8.59027 -0.00224587 9.99608C-0.00224587 14.1687 0.00236991 15.3888 0.0223716 15.6258C0.0916082 16.4597 0.222388 16.9844 0.499335 17.5583C1.02861 18.6568 2.03947 19.4815 3.23033 19.7892C3.64268 19.8954 4.0981 19.9538 4.68277 19.9815C4.93048 19.9923 7.45531 20 9.98167 20C12.508 20 15.0344 19.9969 15.276 19.9846C15.9529 19.9528 16.3461 19.9 16.7807 19.7877C17.3712 19.6362 17.9215 19.3577 18.3932 18.9716C18.8649 18.5855 19.2466 18.101 19.5117 17.5521C19.7833 16.9921 19.921 16.4474 19.9833 15.657C19.9968 15.4847 20.0025 12.7372 20.0025 9.99346C20.0025 7.24923 19.9964 4.50684 19.9828 4.33452C19.9197 3.53138 19.782 2.99133 19.5017 2.42051C19.2717 1.95324 19.0163 1.60429 18.6455 1.24749C17.9839 0.615437 17.1746 0.230789 16.21 0.0917001C15.7428 0.0241559 15.6497 0.0041542 13.2587 0H10.0031Z" fill="url(#paint1_radial_1215_8516)"/>
<path d="M9.99849 2.61572C7.99279 2.61572 7.74107 2.62449 6.95331 2.66034C6.16709 2.69634 5.63043 2.82082 5.16085 3.00345C4.67512 3.19208 4.26309 3.44441 3.85259 3.85506C3.44179 4.26555 3.18946 4.67759 3.00021 5.16317C2.81712 5.6329 2.69249 6.16972 2.6571 6.95563C2.62202 7.74339 2.61279 7.99525 2.61279 10.001C2.61279 12.0067 2.62172 12.2576 2.65741 13.0454C2.69357 13.8316 2.81804 14.3683 3.00052 14.8378C3.1893 15.3236 3.44163 15.7356 3.85228 16.1461C4.26262 16.5569 4.67466 16.8098 5.16008 16.9985C5.62997 17.1811 6.16679 17.3056 6.95285 17.3416C7.74061 17.3774 7.99217 17.3862 9.99772 17.3862C12.0036 17.3862 12.2545 17.3774 13.0423 17.3416C13.8285 17.3056 14.3658 17.1811 14.8357 16.9985C15.3213 16.8098 15.7327 16.5569 16.143 16.1461C16.5538 15.7356 16.8061 15.3236 16.9954 14.838C17.1769 14.3683 17.3016 13.8314 17.3385 13.0455C17.3739 12.2578 17.3831 12.0067 17.3831 10.001C17.3831 7.99525 17.3739 7.74354 17.3385 6.95578C17.3016 6.16956 17.1769 5.6329 16.9954 5.16332C16.8061 4.67759 16.5538 4.26555 16.143 3.85506C15.7322 3.44425 15.3214 3.19193 14.8352 3.00345C14.3644 2.82082 13.8274 2.69634 13.0412 2.66034C12.2535 2.62449 12.0027 2.61572 9.99634 2.61572H9.99849ZM9.33598 3.9466C9.53261 3.9463 9.75201 3.9466 9.99849 3.9466C11.9704 3.9466 12.2041 3.95368 12.9827 3.98907C13.7028 4.022 14.0936 4.14231 14.3539 4.2434C14.6986 4.37726 14.9443 4.53727 15.2026 4.79575C15.4611 5.05424 15.6211 5.30041 15.7553 5.64506C15.8564 5.90508 15.9768 6.29588 16.0096 7.01594C16.045 7.79447 16.0527 8.02833 16.0527 9.99927C16.0527 11.9702 16.045 12.2041 16.0096 12.9826C15.9767 13.7027 15.8564 14.0935 15.7553 14.3535C15.6214 14.6981 15.4611 14.9435 15.2026 15.2019C14.9441 15.4603 14.6987 15.6204 14.3539 15.7542C14.0939 15.8558 13.7028 15.9758 12.9827 16.0087C12.2042 16.0441 11.9704 16.0518 9.99849 16.0518C8.02648 16.0518 7.79277 16.0441 7.01424 16.0087C6.29418 15.9755 5.90338 15.8551 5.64289 15.7541C5.29825 15.6202 5.05208 15.4602 4.79359 15.2017C4.53511 14.9432 4.3751 14.6977 4.24093 14.3529C4.13985 14.0928 4.01937 13.702 3.9866 12.982C3.95121 12.2035 3.94414 11.9696 3.94414 9.99742C3.94414 8.02526 3.95121 7.79262 3.9866 7.01409C4.01953 6.29403 4.13985 5.90323 4.24093 5.6429C4.37479 5.29826 4.53511 5.05208 4.79359 4.7936C5.05208 4.53512 5.29825 4.3751 5.64289 4.24094C5.90322 4.13939 6.29418 4.01938 7.01424 3.9863C7.69553 3.95553 7.95955 3.9463 9.33598 3.94476V3.9466ZM13.9407 5.17286C13.7654 5.17286 13.594 5.22485 13.4483 5.32224C13.3025 5.41963 13.1889 5.55806 13.1219 5.72002C13.0548 5.88197 13.0373 6.06018 13.0715 6.2321C13.1057 6.40402 13.1902 6.56193 13.3141 6.68586C13.4381 6.80979 13.596 6.89417 13.768 6.92833C13.9399 6.96249 14.1181 6.94489 14.28 6.87777C14.442 6.81065 14.5804 6.69701 14.6777 6.55123C14.775 6.40545 14.827 6.23408 14.8269 6.05878C14.8269 5.56951 14.4299 5.17255 13.9407 5.17255V5.17286ZM9.99849 6.20833C7.90401 6.20833 6.20587 7.90648 6.20587 10.001C6.20587 12.0954 7.90401 13.7928 9.99849 13.7928C12.093 13.7928 13.7907 12.0954 13.7907 10.001C13.7907 7.90648 12.0928 6.20833 9.99834 6.20833H9.99849ZM9.99849 7.53922C11.358 7.53922 12.4602 8.64131 12.4602 10.001C12.4602 11.3605 11.358 12.4627 9.99849 12.4627C8.63884 12.4627 7.53675 11.3605 7.53675 10.001C7.53675 8.64131 8.63884 7.53922 9.99849 7.53922Z" fill="white"/>
<defs>
<radialGradient id="paint0_radial_1215_8516" cx="0" cy="0" r="1" gradientUnits="userSpaceOnUse" gradientTransform="translate(5.31104 21.5404) rotate(-90) scale(19.8215 18.4406)">
<stop stop-color="#FFDD55"/>
<stop offset="0.1" stop-color="#FFDD55"/>
<stop offset="0.5" stop-color="#FF543E"/>
<stop offset="1" stop-color="#C837AB"/>
</radialGradient>
<radialGradient id="paint1_radial_1215_8516" cx="0" cy="0" r="1" gradientUnits="userSpaceOnUse" gradientTransform="translate(-3.35395 1.44077) rotate(78.6776) scale(8.86037 36.532)">
<stop stop-color="#3771C8"/>
<stop offset="0.128" stop-color="#3771C8"/>
<stop offset="1" stop-color="#6600FF" stop-opacity="0"/>
</radialGradient>
</defs>
</svg>
