<svg width="31" height="30" viewBox="0 0 31 30" fill="none" xmlns="http://www.w3.org/2000/svg">
<path d="M8.07463 20.8329C7.63528 21.2723 7.63528 21.9845 8.07463 22.4238C8.51396 22.8632 9.22627 22.8632 9.66562 22.4238L15.4993 16.5902L21.3329 22.4238C21.7723 22.8632 22.4846 22.8632 22.924 22.4238C23.3633 21.9845 23.3633 21.2723 22.924 20.8329L17.0903 14.9992L22.9238 9.16562C23.3632 8.72627 23.3632 8.01396 22.9238 7.57463C22.4845 7.13528 21.7723 7.13528 21.3329 7.57463L15.4993 13.4082L9.66569 7.57463C9.22634 7.13528 8.51404 7.13528 8.0747 7.57463C7.63535 8.01396 7.63535 8.72627 8.0747 9.16562L13.9083 14.9992L8.07463 20.8329Z" fill="#8A8A8A"/>
</svg>
